<svg 
  xmlns="http://www.w3.org/2000/svg" 
  viewBox="0 0 100 100" 
  className="w-8 h-8 mr-3 drop-shadow-md" 
  fill="none"
>
  <defs>
    <linearGradient id="goldGradient" x1="0%" y1="0%" x2="100%" y2="100%">
      <stop offset="0%" stopColor="#FDE047" />
      <stop offset="50%" stopColor="#F59E0B" />
      <stop offset="100%" stopColor="#B45309" />
    </linearGradient>
    <linearGradient id="shieldGradient" x1="0%" y1="0%" x2="0%" y2="100%">
      <stop offset="0%" stopColor="#3F1D0B" />
      <stop offset="100%" stopColor="#1A0B02" />
    </linearGradient>
  </defs>

  <path 
    d="M50 5 L10 20 L10 50 C10 75 30 90 50 95 C70 90 90 75 90 50 L90 20 Z" 
    fill="url(#shieldGradient)" 
    stroke="url(#goldGradient)" 
    strokeWidth="4" 
    strokeLinejoin="round"
  />

  <path 
    d="M50 12 L18 24 L18 50 C18 70 34 82 50 86 C66 82 82 70 82 50 L82 24 Z" 
    fill="none" 
    stroke="#FBBF24" 
    strokeWidth="1" 
    opacity="0.3"
  />

  <g transform="translate(50, 50) rotate(45) translate(-50, -50)">
    <path d="M48 20 L52 20 L52 65 L50 70 L48 65 Z" fill="#E2E8F0"/>
    <path d="M50 20 L52 20 L52 65 L50 70 Z" fill="#94A3B8"/>
    <rect x="40" y="65" width="20" height="4" rx="1.5" fill="url(#goldGradient)"/>
    <rect x="48" y="69" width="4" height="12" fill="#78350F"/>
    <circle cx="50" cy="83" r="3" fill="url(#goldGradient)"/>
  </g>

  <g transform="translate(50, 50) rotate(-45) translate(-50, -50)">
     <path d="M48 20 L52 20 L52 65 L50 70 L48 65 Z" fill="#E2E8F0"/>
    <path d="M50 20 L52 20 L52 65 L50 70 Z" fill="#94A3B8"/>
    <rect x="40" y="65" width="20" height="4" rx="1.5" fill="url(#goldGradient)"/>
    <rect x="48" y="69" width="4" height="12" fill="#78350F"/>
    <circle cx="50" cy="83" r="3" fill="url(#goldGradient)"/>
  </g>
</svg>